<svg width="38" height="40" viewBox="0 0 38 40" fill="none" xmlns="http://www.w3.org/2000/svg">
<rect width="38" height="40" rx="4" fill="white"/>
<g clip-path="url(#clip0_11_687)">
<path d="M31.1875 8.75006H14.264C13.4171 8.75006 12.6234 9.12546 12.0859 9.78184L4.21145 19.4068C3.92944 19.7519 3.92944 20.2482 4.21145 20.5933L12.0868 30.2191C12.6233 30.8747 13.4171 31.25 14.264 31.25H31.1874C32.7384 31.25 33.9999 29.9884 33.9999 28.4375V11.5625C34 10.0116 32.7384 8.75006 31.1875 8.75006ZM32.125 28.4375C32.125 28.9548 31.7047 29.375 31.1875 29.375H14.264C13.9811 29.375 13.7165 29.2495 13.5379 29.0316L6.14872 20L13.537 10.9693C13.7165 10.7504 13.981 10.625 14.264 10.625H31.1874C31.7047 10.625 32.1249 11.0452 32.1249 11.5624C32.125 11.5625 32.125 28.4375 32.125 28.4375Z" fill="black"/>
<path d="M24.8996 14.6496L20.875 18.6743L16.8503 14.6496L15.5246 15.9753L19.5493 19.9999L15.5246 24.0246L16.8503 25.3503L20.875 21.3256L24.8996 25.3503L26.2253 24.0246L22.2006 19.9999L26.2253 15.9753L24.8996 14.6496Z" fill="black"/>
</g>
<defs>
<clipPath id="clip0_11_687">
<rect width="30" height="30" fill="white" transform="translate(4 5)"/>
</clipPath>
</defs>
</svg>
